<svg id="svg2" xmlns="http://www.w3.org/2000/svg" viewBox="0 0 1496.5 741.7"><style>.st0{fill:#244560}</style><g id="layer1" transform="translate(275.176 -309.458)"><path id="path2830" class="st0" d="M103 1028.3c-6-2.2-7.7-4.4-6.3-8.2.7-1.7 1.9-3.2 2.8-3.2s4.8 2 8.7 4.5c3.9 2.5 8.6 5.1 10.5 5.8l3.5 1.3-4.3.1c-2.4.1-5.8.3-7.7.6s-5-.1-7.2-.9zm-13.6-11.6c-1.1-.6-3-.8-4.2-.5-1.5.5-2.6-.2-3.7-2.3-.9-1.6-2.4-3.2-3.5-3.6-2.4-.8-7.3-8.9-10.1-16.4-1.4-3.8-3.3-6.4-5.5-7.7-4-2.3-4.2-3.3-1.2-4.2 3.5-1.1 4.2-7.3 1.2-11.4-1.4-2-2.1-4.3-1.7-5.4.5-1.3-.9-3.6-4.2-7-4.2-4.3-5-5.9-5.2-10.4-.1-2.9-.8-6.1-1.6-7-.9-1.1-1.1-5.2-.6-13.3.6-8.8.2-14.2-1.3-21.7-2.3-11.2-3.4-32.1-2.8-51.1.1-4.1-.4-9.6-1.2-12.4-1.9-6.7-10.5-15.2-21.1-20.8-7.6-4-8.7-5-11.7-11.2-1.8-3.7-5.2-9.3-7.7-12.4-2.4-3.1-5-7.6-5.8-10-2.5-7.8-6.9-15.6-10-17.5-1.6-1.1-3.4-3.8-4.1-6.1-1-3.7-.8-4.7 2.5-9.4 3.5-5.1 3.5-5.3 1.2-5.9-5.8-1.5-3.3-9.2 7-22.3 6.9-8.7 8.9-15.3 7-23-.7-2.9-1.4-6-1.4-6.8-.1-.8-.6-1.5-1.2-1.5s-.5-1.1.2-2.4c1.1-2 .8-2.6-1.8-3.8-3.8-1.7-9.4 0-9.5 2.8 0 3.4-1.5 3.7-6.5 1.1-2.6-1.4-5.4-2.5-6.1-2.5s-3.5-1.9-6.2-4.2-5.5-4.7-6.3-5.4c-.8-.6-1.5-2.4-1.5-3.9s-1-3.7-2.3-4.8c-1.3-1.2-2.9-3.9-3.7-6.2-1-3-1.7-3.7-2.6-2.8-1.9 1.9-4.8 1.6-11.8-1.5-3.7-1.6-7.5-4.4-9-6.5-1.5-2-4.2-4.5-6.2-5.5-3.2-1.7-4-1.6-8.7.1l-5.1 2-15.8-7.6c-9.7-4.7-17.2-9.2-19.5-11.6-3.6-3.8-3.7-4.2-2.5-9 1.1-4.3.9-5.7-1.5-10.6-1.5-3.1-4.8-7.9-7.3-10.6s-4.3-5.4-3.9-6c.3-.6-1.4-4.4-3.9-8.5-2.9-4.7-4.9-9.6-5.4-13.3-.6-4.7-1.4-6.1-3.8-7.2-2.5-1.1-3.2-1-4.7 1-2 2.8-1.5 5.7 3 15.4 1.8 3.9 3.7 9.8 4.2 13s1.9 7.8 3.1 10.3c3 5.8 1 5.7-3.6-.2-2.8-3.5-3.5-5.4-3-7.6.6-2.3 0-3.5-2.9-5.6-4.3-3.2-5.3-5.3-3.7-8.3.9-1.7.5-3.6-1.9-8.3s-2.9-7-2.3-10.5c1-5.7-1.6-10.9-6.4-12.9-2.8-1.1-3.7-2.4-4.3-5.8-.4-2.4-1.2-6-1.7-8.1-.6-2.2-.5-4.1.1-4.5s.2-2-.9-3.6c-1.6-2.4-1.7-3.5-.6-5.9.7-1.6 1-3.5.6-4.2s.6-2.6 2.2-4.3 3.8-5.2 4.8-7.7 4.2-7.1 7-10.3c2.8-3.2 6.4-8.7 8-12.3 2.2-5 3.4-6.5 5.4-6.6 1.4 0 2.5.6 2.4 1.5-.4 3.4 2.3 2.3 5.3-2.1 1.8-2.6 2.7-4.9 2.1-5.1-.6-.2-1.1-1.2-1.1-2.2s-2.4-4.2-5.4-7.1c-5-4.8-5.3-5.5-3.6-7.3 1.3-1.5 1.5-2.6.6-4.1-1.6-2.8.9-9.1 3.6-9.1 1.1 0 1.4-.4.7-.9-1.5-1.1-2.2-3.7-2-7.4.3-5.9-1-8.4-5.3-10.2-2.4-1-6-3.1-8-4.6s-4.7-2.8-5.8-2.8-6.3-1.1-11.4-2.4c-8.3-2.1-9.7-2.2-12.6-.7-5.9 3.1-12.2 4.3-14.8 2.9-1.9-1-4-.4-11.3 3.4-4.9 2.6-10.8 5.1-13.1 5.6s-6.6 2.1-9.7 3.7c-8.6 4.4-21 8.7-24.4 8.7-2.2 0-.7-1 5.2-3.3 10-4 20.2-9.1 21.2-10.7 1.2-1.9-1.4-2.6-4.4-1.2-2.2 1-3.6.9-6.2-.4l-3.3-1.7 3.6-1.9c4.1-2.1 5.4-4.5 4.4-8.3-.9-3.6 4.1-6.3 14.9-7.9 5.8-.9 10.2-2.3 13.2-4.4 5.2-3.6 4.3-6.3-1.3-3.9-2.7 1.1-4.6 1.1-8.6.1-4.8-1.3-5-1.5-2.8-3.1 3.6-2.6 11.1-4.2 16-3.4 3.1.5 5.6.2 8.3-1.2l3.8-1.9-2.5-2.6c-1.4-1.5-2.5-3-2.5-3.3 0-1.1 7.1-3.3 10.7-3.3 1.8 0 6.6-1.3 10.8-2.9s13.8-3.7 21.4-4.8c12.3-1.7 14.9-1.7 24.2-.2 5.7.9 13.5 2.1 17.4 2.5s10.8 1.8 15.3 3c10.5 2.9 17.4 2.9 29.2-.1 5.2-1.3 10.4-2.1 11.7-1.7 1.2.4 3.3.1 4.6-.6 1.8-1 3.2-.9 5.8.5 2.3 1.2 5.2 1.6 9.2 1.1 4.2-.5 7.8 0 13.1 1.8 4 1.4 8.5 2.5 10 2.5 2.6 0 2.6 0 .3 1.7-2.2 1.6-2.2 1.7-.1 2.5 1.2.5 5.3.5 9.1.1 6.9-.7 7-.7 8.9 3l1.9 3.8 2.5-3.2c1.5-1.8 4.9-3.9 8.1-4.8 4.9-1.5 6.3-1.5 11.2 0 3.4 1.1 7.6 1.4 10.6 1 3.9-.6 5.7-.2 8.3 1.6 3.2 2.3 3.3 2.3 6.2.1 1.6-1.2 4.9-2.8 7.3-3.5 5.8-1.6 7.8-5.1 4.3-7.5-2.5-1.7-2.4-1.9 4.1-5 4.8-2.4 7-2.9 8-2s.9 2 0 3.8c-1.6 3.1.4 7.7 3 6.8.9-.4 2.5-.3 3.4 0 1.5.6 1.5 1.1-.2 3.6-4.5 6.9 5.6 5 12.5-2.4 2.8-3 7.1-3.9 11.2-2.4 2.6 1 2.4 1.8-2 6.6-5.2 5.7-7.8 6.8-15.6 6.8-3.8 0-8.2.8-10.3 1.9-2.9 1.5-4.3 1.6-6.5.6-4.2-1.9-5.7-.3-2.7 2.9l2.6 2.7-5.1 1.5c-2.8.8-7.5 1.5-10.5 1.6-4.2.1-5.3.6-5.3 2.3 0 1.4-2.1 2.9-6.5 4.8-14.3 5.9-26.5 16.4-22.1 19.2.8.5 2.1 2.4 2.9 4.2.9 2 2.6 3.5 4.7 3.9 1.8.4 6.5 2.2 10.4 4.1s8.7 3.8 10.6 4.3c5.4 1.2 5.4 1.3 2.9 7.6-2.1 5.4-2.2 6.2-.5 9.4 1 1.9 2.5 3.5 3.3 3.4 3.9-.1 7.5-3.7 9.8-9.6 2.1-5.6 3.1-6.7 9.3-10 9.1-4.9 12.9-9.7 11.9-15-.7-3.5-.3-4.3 2.7-6.5 1.9-1.3 4.4-4.6 5.6-7.2 2.6-5.8 6.8-7.8 13.9-6.6 6.3 1 13.7 5 14.6 7.8.4 1.2.1 3.2-.7 4.6-1.1 2.1-.9 3 1.3 5.3l2.6 2.8 4.3-2.2c2.4-1.2 6.1-3.6 8.4-5.3l4.1-3.1 1 2.6c.5 1.4.7 3.3.3 4.2-.3.9-.1 2.7.6 3.9.8 1.4.8 3 .2 4.2-.7 1.3-.2 3.4 1.7 6.7 2.7 4.8 2.7 4.8.3 6.5-3.1 2.2-1.1 4.5 2.3 2.7 3.4-1.8 7.4-1.6 9.8.6 3.6 3.2.6 7.1-8.9 11.6-10.3 4.9-14.9 5.8-28.4 5.9-10 .1-11.3.4-21 5-5.7 2.7-10.3 5.4-10.3 6 0 2.4 1.8 2.2 8.7-1 4-1.9 9.3-3.4 11.8-3.4 4.2 0 4.4.1 3.1 2.6-.8 1.4-2.4 3.4-3.7 4.5-2 1.6-2.1 2.3-.9 5 1.9 4.1 6.7 6 12.5 5.1l4.6-.8-3.5 2.4c-1.9 1.3-5.1 2.8-7.1 3.2-2 .4-6 2-9 3.5s-6 2.3-6.8 1.8c-1.9-1.2.1-2.9 6.2-5.4 5.4-2.3 4.5-4.7-1.3-3.6-2.3.4-9.6 3.2-16.3 6.2-10.5 4.6-12.3 5.8-12.9 8.6-.8 3.4-3.3 5-12.3 7.8-2.9.9-6.6 3-8.3 4.7s-4.9 4.3-7.1 5.7c-2.2 1.4-4.4 3.9-4.8 5.5-.6 2.7-.8 2.7-1.6.7-1.5-3.8-3.7-.1-3.8 6.5-.1 6.7-3.5 11.3-11 14.8C13.9 556.9 3 565.4.8 569.5c-1.9 3.6-2 5-.8 14.3 1.1 8.7 1.1 10.9-.4 13.7-1.1 2.1-2.4 3.1-3.5 2.7-2.5-1-5.6-11.4-4.8-16 .6-3.2.2-4.4-2.2-6.7-1.9-1.8-3.7-2.5-5.2-2-1.3.4-4.8-.4-8-1.7-4.8-2-6.3-2.2-9.7-1.1-2.3.8-4.6 2.6-5.3 4.2-1.1 2.5-1.9 2.8-4.9 2.1-2-.4-5.1-1.5-6.8-2.4-4.3-2.2-6.7-2.1-11.6.7-2.3 1.3-6.9 3.8-10.3 5.5-3.9 2-6.6 4.3-7.3 6.2-.6 1.7-2.8 8.2-4.8 14.4l-3.7 11.4 1.9 7.4c3.5 13.5 8.4 17.6 18.5 15.4 7.7-1.6 12.2-5 13.9-10.1 1.1-3.3 2.2-4.3 5.7-5.3 5.2-1.4 7.4-1.5 9.4-.2 1.7 1 1.1 2.8-6.3 18.8-5.1 11-4.7 12 4 10.7 7.9-1.1 15.2-.3 16 1.9.3.9-.2 6.7-1.2 12.9-1.8 11.1-1.8 11.4.8 15.5 1.4 2.3 4.1 5 5.9 5.9 2.9 1.5 3.8 1.5 7.5 0 5.8-2.4 9-2.2 13.1 1.1 3.2 2.6 3.7 2.7 6.3 1 1.5-1 3.6-3.5 4.6-5.5 2.3-4.5 6.1-7.7 9.4-7.8 1.3 0 3.7-1.4 5.2-3 3.1-3.3 8.6-4.4 5.9-1.2-2.2 2.7-3.5 11.4-2.1 14.1 1.2 2.2 1.3 2.2 3.5-.5 1.6-1.9 1.9-3.2 1-4-2-2-1.4-3.7 2.4-6.5 3.9-2.9 7-2.6 10.3 1 2.5 2.6 15.7 6.2 19.5 5.3 5.8-1.5 21.4 8 27.3 16.6 2.8 4.1 11.7 8.1 15.6 7.2 8.1-2 19.1 6.1 21.7 15.9.8 2.9 1.9 5.6 2.6 6.1 1.7 1.1-.9 5.3-6.5 10.7-3.6 3.4-4.5 4.9-3.5 5.9s2.7.1 6.7-3.6c5.8-5.4 7.8-5.9 10.7-3 1.8 1.8 1.7 2.1-.7 4.7-1.4 1.5-3.5 2.8-4.5 2.9-1.1 0-.6.6 1 1.2 2.3.9 3.5.7 5.9-1.3 6.2-5 7.7-5.3 13.2-2.2 3.6 2 5 3.5 4.9 5.2-.5 4.5.6 5.5 3.7 3.5 2.5-1.6 4.2-1.7 12.5-.6 8.8 1.2 10 1.7 14.2 5.9 3.1 3.1 6.7 5.2 11.1 6.5 6 1.7 6.6 2.3 7.7 6.3 1.6 5.8-.3 12.3-5.2 18.4-2.1 2.6-4.7 6.5-5.8 8.6s-3.3 5.2-5 6.9c-2.9 2.9-3 3.6-2.3 10.4 1.4 13.3-5.1 38.1-11.4 43.4-2 1.7-3.8 2.1-7 1.6-2.7-.4-4.6-.1-5.1.7-.5.7-3 2.3-5.7 3.5s-6.7 3.7-8.9 5.6c-3.8 3.3-3.9 3.6-2.7 7.5 1.5 4.5.5 9.8-2.7 14.3-1 1.5-1.9 4-1.9 5.5s-1.2 4.5-2.7 6.5-4.4 6.6-6.5 10.2c-5 8.9-8.1 10.4-15.4 7.8-6.3-2.3-9.7-2.5-9.7-.8 0 .7 1.3 1.8 2.8 2.5s3.9 3.6 5.3 6.4c2.1 4.2 2.3 5.6 1.2 8-1.7 3.7-8.1 6.8-14.1 6.8-5.3 0-6.6 1.3-4.8 4.7 1.1 2.1.4 5.5-1.8 8.1-.2.2-2-.5-4.1-1.6-5-2.6-6.7-.9-4.2 3.9 1 2 3 3.9 4.3 4.4 2.3.7 2.4.9.5 3-1.1 1.2-1.7 3.1-1.3 4.1.4 1.1-.5 3.6-2.4 5.9-3 3.9-3 4.2-1.1 7.1 1.1 1.7 2.8 3.3 3.8 3.7 3.6 1.4 4.1 6 1.4 11.3s-3.1 10.7-1 13.2c1.9 2.7-4.5 7.2-7.4 5.5zm-87-511.5c3.2-6.6 9-11.5 13.8-11.5 3.4 0 3.4.6.3 4.5l-2.5 3.1 2.5 2c2 1.6 3.1 1.8 5.4.7 1.6-.7 3.2-2.3 3.6-3.6.5-1.7 1.4-2.1 3.5-1.6 1.9.5 3.1.1 3.9-1.3 2.4-4.3-3.7-9.8-8.2-7.4-3.2 1.7-7.4-1.7-6.5-5.3.3-1.3-.4-3.7-1.5-5.2-2.4-3.2-6.2-3.6-14.3-1.3-2.9.8-6.3 1.4-7.4 1.4-1.2 0-1.8.4-1.4 1 .4.6.3 1.1-.3 1.1-.5 0-2.3 1-3.9 2.3l-2.9 2.3 3.3 1.3c2.6 1 4.1.8 7-.6 3.4-1.7 4-1.7 7.7 0 2.2 1.1 5.2 1.6 6.8 1.2 1.5-.4 3.1-.2 3.5.5.4.7-1.3 1.5-3.8 1.9-6.9 1.2-10.5 4-15.5 12.4-4.2 7-4.4 7.9-2.8 9.7s2.1 1.8 4.3.3c1.3-.9 3.8-4.5 5.4-7.9zm21.4 7.3c4.2-2.1 4.6-2.7 3.1-4.2s-2.4-1.4-7.2.7c-5.7 2.5-7.5 5.9-3.1 5.9 1.3.1 4.6-1 7.2-2.4zm21-8.9c2.5-1.7 2.6-2.1.8-3-2.6-1.4-10.1 1-10.1 3.3-.1 2.3 5.8 2.1 9.3-.3zm88.7 510c0-.5.6-1.6 1.4-2.4s1-1.4.4-1.4-1.6.9-2.4 1.9c-1.1 1.5-1.9 1.7-3.7.6-1.3-.7-1.6-1.3-.7-1.3.9 0 1.2-.6.8-1.2-.8-1.2 1.3-1.6 7.1-1.2 5.2.4 5.7 1.1 2.5 3.6-3 2.4-5.4 3-5.4 1.4zm986.3-29.6c-3.4-2.1 3.7-6.9 21.1-14.2 4.9-2 12.3-6.3 16.5-9.5 7.1-5.4 7.7-5.6 9.2-3.6 2.1 3.1.9 5.3-4.4 7.7-2.5 1.1-5.7 3.3-7 4.9-1.3 1.5-3.5 2.8-4.8 2.8s-4.4 1.8-6.8 4c-8.4 7.4-18.9 10.9-23.8 7.9zm-82.6-15.4c-1.2-.8-1.3-1.6-.3-3.4.7-1.3 1.3-4.1 1.3-6.1 0-3.3.3-3.6 2.7-2.8 1.5.5 4.5 1 6.8 1.1s4.5.2 5 .3c2 .4-3.3 6.3-8 9.1-5.6 3.3-5.4 3.2-7.5 1.8zm136.4-10.3c-.4-.4.6-1.8 2.2-3 2.4-1.9 2.7-2.7 1.6-4.7-1.5-2.8.7-5.9 6-8.1 4.1-1.7 5.1-5.1 4-13.3-.7-5.7-.7-6 1.2-4.5 1.4 1.2 1.8 2.7 1.3 5.4-.6 3-.1 4.5 2.4 7.5 2.7 3.2 3.5 3.5 5.6 2.4s2.3-1 1.7.7c-.4 1.1-.8 2.2-.8 2.5s-1.7 1.3-3.8 2.4c-2.1 1.1-6.2 3.9-9.2 6.4-4.8 3.9-9.6 7.1-10.9 7.1-.3-.1-.8-.4-1.3-.8zM1048.8 943c-2.5-2.6-2.9-2.7-5.3-1.2-3 2-8.8.8-13.4-2.7-2.4-1.9-2.6-2.5-1.4-4.9 1.1-2 1.1-3.4.1-5.6-.7-1.6-1.3-3.9-1.3-5.2 0-2.9-1.9-3-3.4-.2-.6 1.1-1.5 1.7-1.9 1.3s1-2.7 3-5.1c5.1-5.8 3.1-7.4-3.6-2.9-2.9 2-5.5 4.1-5.7 4.7-.2.7-1.6-1.4-3.1-4.5-1.6-3.4-4.4-6.8-6.9-8.4-3.8-2.5-5-2.7-12.2-2-10.6 1.1-20.8 3.7-27.4 7-3 1.5-9 3.1-13.5 3.6s-11.6 2.2-15.8 3.7c-6.4 2.4-8.3 2.7-11.6 1.6-4.4-1.4-6.2-4.4-3.4-5.5 1-.4 2.9-3.1 4.1-6 2-4.7 2.1-6.1.9-12.2-1-5-1-9.7-.1-17.4.7-5.8.9-11.7.6-13.1s.2-4.8 1.3-7.6c1.9-4.9 2.3-5.2 15-10.6 7.2-3 14.5-5.5 16.3-5.5 4.9 0 10.9-4.6 14.3-11 2.1-3.9 3.5-5.4 4.7-4.9 3.4 1.3 4.1 1.1 3.9-1.5-.2-1.6.5-2.8 1.9-3.3 1.2-.4 3.5-2.5 5-4.8 1.6-2.3 4.8-4.9 7.4-5.9 4.3-1.7 4.7-1.7 7.1.4 4.3 3.9 7.4 5.1 8.9 3.3.7-.9 1-1.9.5-2.3-1.4-1.4 4.8-9.1 7.9-9.9 1.6-.4 5-1.7 7.4-3 3.8-1.9 5.2-2 9.4-.9 9.2 2.5 9.5 2.9 6.1 8.1-4.4 6.7-3.2 9.3 7.6 16.9 5 3.5 9.7 6.2 10.5 5.9s3.2-3 5.4-6c3-4.1 4.2-7.2 4.6-12 .7-6.9 4-16.5 5.7-16.5.6 0 1.8 2.8 2.9 6.3 1 3.5 3.1 7.5 4.7 9 3.7 3.5 5.8 13.2 4.2 18.9-1.1 3.8-.9 4.4 2.9 8.3 2.2 2.3 5.8 7.9 7.8 12.4s5.8 11 8.3 14.3l4.6 6-1.3 9.3c-.9 6.8-2.4 11.3-5.3 16.4-4.5 7.9-11.1 15.4-14.6 16.5-1.3.4-4.2 3.4-6.5 6.6-2.3 3.2-4.7 5.8-5.4 5.8-.6 0-3.3 2.8-6 6.1-4.4 5.6-5.3 6.1-9.9 6.2-3.6.1-6.3 1-9.2 3.3l-4.1 3.2-2.7-2.5zm-576-24.8c-2.5-2.5-2.9-3.8-2.4-7.2.5-3.2 0-5.1-2.2-8.5-1.6-2.3-2.9-4.8-2.9-5.6 0-.7-2.1-4.1-4.6-7.5-3.9-5.3-4.8-7.4-5.4-14.1-1.1-11.8-4.9-24.6-10-33.8-2.5-4.6-4.9-10.5-5.3-13.1-.9-5.7 1.4-14.1 6.7-24.4l3.5-6.8-2-5.9c-1.1-3.3-1.6-7.2-1.2-8.9.5-2 0-4.3-1.5-6.7-1.3-2.1-3.1-6.7-4.1-10.2-1.4-4.8-3.3-7.9-7.1-11.7-7.5-7.3-8.5-10.2-6.1-18.2 4.7-16.3-.4-25.8-12.9-23.9-4.9.7-5 .6-5.7-2.8-.5-2.6-2-4.2-5.5-6-4.7-2.4-6.7-2.4-12.4-.1-1.3.5-6.6 2.4-11.8 4.1-7.8 2.6-10.2 2.9-13.6 1.9-3.2-.9-5.9-.7-12.5 1.1-6.8 1.9-9.3 2.1-13 1.1-7.7-2.1-20.9-14-22.8-20.5-1.5-5-10.5-16.7-13.6-17.6-2-.5-2.2-1-1-1.7 1.2-.8 1-1.2-.9-1.7-3-.8-3.3-3.2-.4-3.2 1.8 0 1.8-.2.3-1.2-1.1-.7-1.2-1.2-.3-1.2.9 0 .6-1.5-1-4.2-2.3-3.8-2.3-4.3-.6-6.3 5.3-5.8 6.4-18.4 2.4-26.3-1.9-3.8-.7-9 3.4-14.4 1.5-2 4.5-7 6.7-11.1 3.7-7.1 12.1-16.9 14.3-16.9 2.5 0 10.5-8.7 10.5-11.3 0-6.1 3.6-12.1 9.5-15.9 3.2-2 6.9-5.5 8.3-7.7 2.8-4.5 3.2-4.7 6.5-2.4 1.3.9 4.5 2 7.1 2.4 4 .7 5.9.2 11.8-3 10.2-5.5 16.5-6.8 28.2-6.1 7.7.5 11.2.2 14.9-1.3 5.5-2.2 10.2-.9 9 2.5-.4 1-.2 2.5.5 3.3.8 1 .8 2.5 0 4.8-1.1 2.9-.8 3.7 1.8 6.5 1.7 1.8 4.7 3.6 6.8 4 9.5 1.9 12.2 3.1 14.2 6.4 1.4 2.4 3.3 3.7 6.4 4.3 2.4.5 5.9 1.6 7.8 2.6 3.2 1.6 3.6 1.6 6.3-.9 1.8-1.7 2.6-3.5 2.2-4.8-.4-1.2-.1-3.2.6-4.5 1.8-3.4 7-3.1 15.1 1 8.8 4.4 25.6 7.6 31.5 5.9 2.9-.8 5.6-.8 8.1 0 8.2 2.5 12.3.5 13.5-6.3.4-2.3 1-4.1 1.4-4.1.8 0 1.2-3.4 1.3-10.9 0-2.4.6-4.4 1.3-4.4.8 0 .8-.9-.1-2.5-1.5-2.7-4.4-2.7-11.4.2-3.3 1.4-4.3 1.3-7.3-.5-3.9-2.3-7.9-2.6-9-.8-.9 1.4-6.9.4-10.2-1.6-2.4-1.5-4.6-5.8-4.6-9.1 0-1.2-1.2-3.1-2.7-4.1-2.3-1.6-2.4-2-.9-3 1-.6 3-.9 4.5-.5 1.9.4 3.6-.3 5.8-2.5 2.1-2.1 4.6-3.2 7.4-3.3 2.3-.1 5.7-1.2 7.5-2.4 3.9-2.6 12.8-1.9 19.6 1.6 9.3 4.6 17.5 4.4 20.8-.7 1.7-2.6 1.7-3.2.1-5.7-1-1.5-5.8-5-10.6-7.8l-8.8-5 1.7-3.2c.9-1.8 1.4-3.5 1-3.9s-.2-1.4.3-2.2c.5-.9 1.1-2.2 1.2-3.1.3-1.8-1.6-1.3-11 2.9-5.5 2.4-6.3 3.2-5.1 4.6.8 1 2.6 1.8 4 1.8 1.9 0 1.5.6-2 2.4-4.2 2.2-4.7 2.3-7.5.5-2.4-1.5-2.7-2.3-1.5-3.6 1.1-1.3.9-1.8-.8-2.5-1.2-.5-2.8-1.6-3.5-2.5-3.4-4.5-14.1 7.4-17.2 19.1-1.5 5.5-1.4 5.8 1.3 7.9l2.9 2.2-5.3 1.1c-2.9.6-6.8.7-8.7.2-3.4-.9-7.8.5-7.8 2.5 0 .6-.8.8-1.8.4s-2.5-.1-3.5.7c-1.4 1.2-1.3 2.2 1.1 6.6 2.6 4.8 2.7 5.5 1 8.7-2 4-3.9 3.7-6.7-1.1-2-3.4-2-3.4.7-3.8 3.3-.5 3.5-2.6.3-3.1-7.3-1.2-11.2-5-11.2-11.1 0-4.7-4.4-9.9-9.7-11.5-2.8-.8-5.8-2.6-6.7-3.9-.9-1.3-3.6-3.2-5.9-4.1-2.3-1-5-2.8-5.8-4-1.2-1.8-2-2-3.9-1-1.3.7-2.3 2-2.3 2.9 0 3.1 15.1 16.9 22.4 20.7 7.8 3.9 9 5.3 3.6 4.2-4.8-1.1-6.1 0-4.5 3.6 1.2 2.5 1 3.3-1.4 5.6l-2.7 2.6.6-3.5c1-5.6-6.4-13.6-12.5-13.6-2.2 0-10.8-8.3-13.1-12.7-2.4-4.7-5.1-5.6-8.9-3-5.7 3.9-10 5.2-14.5 4.4-6-1-9.7 1.1-8.8 4.9.5 2 .2 2.9-.9 2.9-.9 0-3.2 1.3-5 3s-3.8 3-4.3 3c-1.5 0-5.6 7.5-5.6 10.1 0 2.5-4.6 7.5-9.1 9.8-1.4.7-4.7 1.3-7.3 1.3-3.6 0-5.1.6-6.1 2.4-1.3 2.4-1.3 2.4-4.4-.6-2.8-2.8-4.5-3.6-10.2-4.4-3-.5-3.5-7.3-1.3-17 1-4.2 1.4-8.8 1.1-10.3-1.1-4.5 2.4-7.1 8.2-6.2 13.5 2.1 21.4 2.2 23.3.3 2.5-2.5 3.7-11 2.1-15.7-1-3.1-2.4-4.3-6.6-5.9-6.1-2.3-6.3-4.6-.3-4.7 2.3 0 5.6-1 7.3-2.1 1.7-1.1 3.7-1.8 4.3-1.4 1.7 1 8-2.6 10.1-5.8 1-1.5 3-3.1 4.4-3.5s5.3-3.1 8.5-6.2c4.6-4.3 7-5.6 11-6.1 4.9-.6 9.8-4.6 7.5-6.1-1.4-.9-2.6-6.7-1.8-8.8.4-1 2.1-2.7 3.7-3.8l3-2-.8 4.9c-.7 4.2-.5 4.8 1.3 4.5 1.1-.2 3.3-1 4.8-1.8 2.2-1.2 2.8-1.2 3.4.4 1 2.6-1.8 5.7-3.7 4.1-1.1-.9-1.8-.9-2.4.1s-1.1.9-1.8-.2c-.5-.9-1.2-1.3-1.6-1-.3.3.6 2.1 2.1 4 2.5 3.1 3 3.3 6.5 2 3.1-1.1 4.5-1 7.1.4 2.9 1.5 3.9 1.4 9.6-.7 4.9-1.9 6.9-2.1 9.1-1.1 2 .9 3.5.9 5.4-.1 5.3-2.7 6.8-4.8 6.1-8.6-1-5.6.8-7.5 5.5-5.7 3.2 1.2 4.1 1.2 5.6-.3s1.4-2.1-1.1-4.8c-2.4-2.6-2.6-3.2-1.1-4.2 1-.6 4.5-.9 8-.5 6.3.7 14.1-1.8 12.7-4-1.2-1.9-8.4-2.5-14.5-1.1-5.4 1.2-6.8 1.1-11-.8-6.4-2.9-7.2-6.3-2.8-12.5 5.7-7.9 6.7-10.4 5.1-12.4-2.4-2.9-4.8-1.9-10.2 4.1-2.9 3.2-6.8 6.5-8.8 7.3-1.9.8-4.3 3-5.3 4.9-1.6 3.1-1.6 3.8 0 6.2 1 1.5 2.9 3.1 4.2 3.5 3.6 1.1 2.9 3.3-2.3 6.9-1.6 1.1-3.7 4.2-4.7 6.9-1.3 3.4-3.2 5.7-6.2 7.4-4.2 2.4-4.4 2.4-6.7.3-1.3-1.2-2.7-3.6-3.1-5.4s-2.2-5-3.9-7.1l-3.2-3.9-4.1 2.5c-2.3 1.4-5.2 2.5-6.5 2.5-3.7 0-8.1-4.1-8.4-7.8-.1-1.9-.6-4.3-1.1-5.4-1.1-2.6 4.2-7.6 9.7-9.1s16.7-9.4 18.6-13c.8-1.6 3.7-4.9 6.4-7.3s4.8-4.9 4.8-5.5 2.5-2.1 5.6-3.2 8.3-3.1 11.5-4.4c4-1.6 9-2.5 15.4-2.7 11.1-.3 18.4 1.2 24.5 5 3 1.9 5.4 2.5 7.7 2.1 4.1-.8 25.8 5.9 26.7 8.3s-5.3 4.6-10.7 3.8c-2.5-.4-7.5-1.3-11.3-2.1-5.1-1.1-7.2-1.1-8.2-.1s-.5 1.7 1.9 2.8c1.8.8 4 3 4.9 4.8 2.4 4.6 10 8.4 14 6.9 3.8-1.4 3.8-1.9-.2-4.1-3.7-2-2-2.4 2.7-.7 3.7 1.4 7.9-.3 6.9-2.9-.5-1.2.8-2.1 4.5-3 7.8-2 8.4-2.3 7.7-3.9-2.4-6-2.5-5.8 1.1-5.4 1.9.2 3.3 1 3.1 1.8s.8 2 2.2 2.8c2.1 1.1 3.7.7 9.3-2.2 8.3-4.3 14.7-5.7 17.1-3.8 1.3 1.1 3.6 1.1 10 0 4.5-.8 8.8-1.1 9.4-.7s1.5.1 1.9-.5c.9-1.5-1.6-4.9-3.1-4.1-1.7 1.1-7.3-.8-6.1-2s34.1 6.4 36.1 8.4c1.3 1.3 5.5-.4 5.5-2.3 0-.6-2.3-2.3-5.2-3.7-8.9-4.3-9.5-11.2-1.1-13.3 4.8-1.2 6.9.2 13.7 9.1 8.7 11.6 8.5 11 5.6 15-2.1 3-2.2 3.7-.8 4.2 2.8 1.1 8.7-2.7 9.5-6 1-3.9-.8-7.2-5.2-9.5-3.4-1.8-5.9-5-5.9-7.7 0-.9 1.3-1.2 3.8-.7 3.8.7 7-.7 15.7-6.9 2-1.4 5.3-2.3 8.7-2.4 6.9-.2 9.1-1.3 7.1-3.7-.8-.9-1.2-1.9-.9-2.2 1.5-1.5 21-4.2 25.4-3.6 4.3.6 5.6.3 9.2-2.4 2.3-1.7 4.1-3.6 4.1-4.2 0-1.4-10.3-1.3-11.2.1-1.2 2-2.8 1.3-2.4-1 .4-2-.6-2.3-9.2-3-23.5-1.8-25.4-2.3-22.6-5.1 2.5-2.5 8.6-2.4 13.6.1 2.1 1 5.5 1.9 7.7 1.9s4.2.5 4.6 1.2c.4.6 2.5 1.2 4.6 1.2 5.9 0 17.3 2.5 16.6 3.7-.3.6.8 1 2.4 1s4.8.9 6.9 2c2.8 1.5 6.7 2 15 2.1 8.9 0 11.9.5 14.5 2.2 1.8 1.2 3.2 2.5 3.2 2.9s-2.7 2.2-6.1 4.1c-8 4.4-6.3 6.4 3.4 3.8 6.3-1.6 7.7-1.6 12.9-.1 4.3 1.3 6.9 1.4 9.8.6 2.9-.8 5.9-.7 10.9.7 5.3 1.4 8 1.5 11.3.6 7.6-2.1 16.9-1.5 22.4 1.4 2.7 1.5 7.7 4.2 11 6 6 3.3 6.3 3.3 10.4 1.4 3.5-1.6 5.4-1.7 10.5-.7s7 .9 9.8-.6 3.3-2.2 2.2-3.5c-2.1-2.5 5.3-3.4 14.3-1.8 4.1.7 9.4 1.5 11.7 1.6s6.7 1.5 9.9 2.9c4.8 2.2 8.4 2.7 22.5 3 13.4.4 17.6.9 20.8 2.6 3.3 1.7 7 2.2 19.4 2.3 11.4.1 16.5.7 19.9 2.1 5.5 2.3 7.6 1.5 4.7-1.8-2.1-2.4-2.1-2.4 6.1-1.6 13.8 1.4 30.4 4.4 36 6.6 2.9 1.1 8.5 2.4 12.4 2.9s9.6 2.1 12.6 3.7c4.6 2.3 6.1 2.6 9.1 1.6 4.1-1.4 6.7-.4 12.9 5l3.9 3.3-2.9.7c-2.9.7-10.6-1.2-13.3-3.3-.8-.6-1.9-.8-2.4-.5-.6.3-3.3-.2-6.1-1.1-6.6-2.3-9.5-1.4-6.5 1.9 2.1 2.3 2 2.3-1.9 2-7.3-.5-5.3 1.7 5.4 5.8 5.8 2.3 10.9 4.4 11.2 4.7 1.1 1.1-2.5 2.4-5.2 1.9-2.9-.6-10.1 2.6-10.1 4.4 0 .6-1.1 2.2-2.5 3.5-2.3 2.2-2.8 2.2-5.9.6-2.9-1.5-3.8-1.5-6.6-.1-1.8.9-4.8 2-6.8 2.5-1.9.5-4.2 1.4-5 2.1-2.4 2 1.8 7.7 7.7 10.6 3.2 1.6 5.5 3.6 6.2 5.6.6 1.7 1.9 4.5 2.9 6.2 1.6 2.8 1.6 3.2-.1 3.8-1.2.5-1.6 1.4-1.1 2.8.5 1.1 1 3.4 1.1 5 .2 1.6.7 3.8 1.2 4.9.6 1.4.1 2.2-1.8 2.8-2.1.7-3.5-.1-6.9-3.9-2.4-2.6-6.3-6.2-8.7-8-2.4-1.8-6.8-6.4-9.7-10.3-5.1-6.8-5.2-7.1-3.5-10.4 1-1.9 1.8-4.6 1.8-6.1s.8-4 1.7-5.6c1.7-3.1 1-5.5-2.6-9.7-2.4-2.7-6.7-.7-5.6 2.7 1 3.1-2 4.1-5.5 1.8-1.5-1-5-2.2-7.7-2.6-4.7-.8-5.1-.6-6.3 2.6-.7 1.9-1 4.8-.7 6.6.5 2.7.2 3.3-2.6 3.9-1.9.4-5.1-.1-7.8-1.2-2.9-1.2-5.7-1.6-7.6-1-1.7.5-7.4.9-12.7 1-8.4.1-10 .5-12.6 2.9-1.6 1.5-3.6 5.2-4.3 8.3-.8 3-2.1 6.7-3.1 8.1-1.6 2.5-1.5 2.8 3.2 5.1 5 2.6 10.5 3.2 14.7 1.8 3.2-1.1 13 6.5 16 12.5 1.2 2.4 3.3 5 4.6 5.7 4.8 2.6 5.8 19.5 1.8 30.6-2.8 7.7-5.9 10.2-10.5 8.4-1.8-.7-3.4-1.2-3.6-1.2-.2 0-1.5 2.2-2.9 4.8-1.8 3.5-2.2 5.3-1.3 6.3 1.7 2.1.4 4.8-3 6.3-1.6.7-2.9 1.8-2.9 2.5s3.7 3.7 8.2 6.8c5.7 4 8.8 7 10.2 10.1 1.1 2.5 1.8 4.7 1.5 4.9s-2.7 1.5-5.4 2.9l-4.9 2.5-2.9-6.7c-3.3-7.6-6.1-10.6-11.1-11.9-2.5-.7-3.4-1.6-3.4-3.7 0-1.9-1.2-3.5-3.8-5-3.8-2.2-3.9-2.2-7.9.3s-4.1 2.5-5.3.2c-.7-1.3-1.3-3.2-1.3-4.1s-1-2.3-2.2-3c-1.8-1-2.9-.4-6.3 3.2-2.2 2.4-5.1 5-6.3 5.7-2 1.1-2.1 1.6-.7 3.2.9 1 3.9 3.2 6.7 4.8 4.5 2.5 5.3 2.6 6.8 1.1 1.4-1.4 2.6-1.5 6.9-.3l5.2 1.4-2.9 1.9c-5.4 3.6-7 5.5-7.8 8.7-.6 2.7-.3 3.4 2.1 4.5 1.6.7 4 3.6 5.4 6.4 1.4 2.8 4.1 6.1 6.1 7.2 4.3 2.6 5.6 5.3 3.1 6.7-2.3 1.3-1.2 3.2 1.9 3.2 3.7 0 3.7 2.2.1 14.9-4.3 15.3-8.2 20.5-18.4 24.2-4 1.5-8.9 2.8-10.8 2.9-4.5.3-8 2.2-11.1 6.1l-2.4 3.1-1.1-3c-1.5-3.9-4.9-4.9-9.7-2.8-4.5 1.9-7.4 4.9-8.6 8.8-1.1 3.5 2.7 9.6 8.9 14.5 5.1 4 10.8 14.2 12.2 21.6 1.2 6.4-.9 10.7-6.5 13.2-2.5 1.1-4.9 3-5.3 4.2-.9 2.8-6.1 6.2-7.1 4.6-.4-.6-.4-2.2 0-3.4s.4-3 0-4.1c-.6-1.5-1.2-1.7-3.1-.7-1.9 1-2.7.8-4.3-1.5-3.9-5.6-15-14.6-18.1-14.6-1.1 0-1.5 1.3-1.3 4.1.2 2.3-.3 6.7-1 9.9-1.2 5.1-1 6.1 1.2 9 1.3 1.8 2.8 4.7 3.2 6.3.4 1.7 3.8 5.4 7.7 8.6 6.5 5.2 7.2 6.3 9.9 14.9 1.6 5.1 2.9 9.8 2.9 10.4 0 2-2.5 1.2-7.6-2.5-5.3-3.8-8.7-9.9-11.6-20.6-1.2-4.6-2.6-6.6-6.4-9.4-4.7-3.5-4.8-3.8-4.5-9.5.2-3.2.7-7.9 1.2-10.2.6-3.3.1-5.7-2.2-10.6-1.7-3.5-3.6-8.8-4.4-11.8-1.7-6.8-4-7.9-8.2-4-1.7 1.6-3.5 3-3.9 3-1.9 0-4.5-4-3.8-6 1.1-3.5-5.8-15.9-9.8-17.6-2.2-.9-4.2-3.1-5.6-6.1-2.4-5.2-5-7.2-7.6-5.8-1 .5-4.8 1.6-8.5 2.3-6.8 1.4-9.3 3.5-8.4 7 .3 1.3-.9 2.6-3.7 4-2.3 1.1-4.8 3.3-5.6 5s-2.4 3.3-3.6 3.7-3.2 2.2-4.3 4-4.4 5.1-7.3 7.4c-4 3.1-5.2 4.8-5 6.9 1.2 12.6-.6 23.1-5 29.4-4.2 6.1-4.5 6.3-8.1 4.6-2-.9-3.2-2.7-3.7-5.3-.4-2.2-2.8-8.4-5.3-13.7-15.1-32.4-17.3-38.6-16-44.5.9-4-1.2-9.9-3.2-9.3-.8.3-1.5 1.2-1.5 2.2-.1 5.4-6.2 6.2-10.9 1.5l-3.1-3.1 2.7-1c3-1.1 2.8-4.1-.3-3.6-1.1.2-3.6-1-5.6-2.7s-4-3-4.6-3-1.4-1.1-1.8-2.4c-1.1-3.4-7.4-6.4-10.5-5-2.8 1.3-28.5 1-32.8-.3-1.5-.5-4.4-2.7-6.4-4.9-3.5-4-3.6-4-8.9-2.6-5 1.3-5.7 1.2-12.5-2.2-5.8-2.9-7.6-4.5-9.4-8.5-2.3-5.1-7.4-8.8-10.5-7.6-1 .4-2.1 2.2-2.5 4.1-.6 2.7 0 4.5 2.9 8.4 2 2.7 4.2 7 4.9 9.5 1.4 5.3 4.3 6.9 6.6 3.7 1.4-1.9 1.8-2 2.8-.5.6 1 .9 2.3.7 2.9-.7 2 6.2 5.4 9.3 4.6 1.6-.4 5-3.1 7.6-6.1 4.1-4.6 5.5-4.9 4.8-1.1-.5 2.6 1.6 5.7 5 7.5 5.3 2.7 12.6 8.8 12.6 10.4 0 .8-1.4 2.7-3.1 4.2s-4.1 4.9-5.4 7.4c-3.1 6.1-12.1 14.9-15.2 14.9-3.5 0-8.8 3-10.9 6.2-1 1.5-3.6 3.6-5.8 4.7-11.2 5.6-24.7 11.3-28.5 12-4.1.8-4.4.6-6.6-3.7-1.2-2.5-2.7-7.4-3.1-11-.6-4.6-1.8-7.6-4.3-10.4-1.9-2.1-3.4-4.4-3.4-5s-2.1-3.3-4.7-6c-3.2-3.3-5.3-7-6.7-11.5-1.1-3.7-3.2-8.2-4.8-10.2-10.8-13.5-14-18.2-15.7-23.2-2.1-6.6-4-7.6-4.8-2.8l-.6 3.4-4-5c-6.2-7.8-6.9-4.2-1.2 5.2 2.7 4.5 7.1 12.4 9.7 17.6 2.6 5.2 6 11.1 7.5 13.1 1.6 2.1 2.8 5.3 2.8 7.5 0 4.5 1.3 7.2 6.5 13.7 2.1 2.6 4.2 6.4 4.6 8.4.6 2.6 2.8 5.3 7.7 9.3 7.4 6 12.3 12.2 13.5 17.4.5 2 2.2 4 4.3 5.1 3.3 1.7 4.5 1.7 14.9-.6 6.2-1.3 12.8-3.2 14.6-4.2l3.3-1.7.8 4.7c.7 4.2-.1 6.3-8.5 22.4-9 17.3-9.5 17.9-18.5 25-5.1 4-10.4 8.9-11.8 10.9s-5.9 7.3-10 11.9c-12 13.3-13.6 25-5.7 40.7 2 4 2.8 7 2.3 8.9-.4 1.6-.1 5.6.6 8.9 1.1 5.2 1 6.6-.9 10.4-2.8 5.5-5 7.4-12.8 11.4-3.4 1.7-6.2 3.6-6.2 4.2s-2.4 3.8-5.3 7.1-5.3 6.5-5.3 7.2 1.1 3.3 2.4 6c4 7.9 1.3 13.6-8.3 17.6-4.1 1.7-5.4 5.1-4.4 11.3.5 3.2.2 4.3-1.6 5.3-1.3.7-3.6 3.2-5.1 5.6-4.8 7.6-18.8 21.1-25.1 24.2-5.3 2.7-6.6 2.9-10.5 1.8-3.4-.9-6.2-.8-11.9.6-8.6 2.3-7.6 2.4-11.2-1.2zm155.6-376.7c3-1.6 3.5-2.4 3.5-6.9 0-3.2-.7-5.7-1.8-6.7-1-.8-2.7-3.1-3.7-5-1.6-3.2-1.6-3.4.1-2.8 2.3.9 5.4-.2 5.4-1.8 0-.6-1.1-2.7-2.4-4.6-2-2.8-2.8-3.2-4.7-2.2-1.5.8-2.3.8-2.3 0 0-.7-2.1-2.3-4.7-3.6-5.7-2.9-7.7-6.1-6-9.5 1.3-2.5 6.2-4.3 8.2-3 2.8 1.7 3.6-.8 1.3-4-5.5-7.8-13.3-7.3-22.8 1.5-6.2 5.7-6.7 7.2-3.2 9 1.3.7 2.4 2.1 2.4 3 0 1 2.1 4 4.7 6.8 5.9 6.4 7 9.3 6.3 16.9l-.6 6.1 8.1 4.2c4.5 2.3 8.3 4.2 8.5 4.2.1.2 1.8-.6 3.7-1.6zm-32.5 329.9c-3.3-1.9-3.8-2.9-4.7-9.9-.7-5.6-.4-6.8 2.9-12.2 3.4-5.5 3.6-6.6 2.9-12.5-1.1-8.6.8-13.2 5.8-14.3 4.7-1 15-10.1 17.4-15.4l1.9-4.1 1.3 2.9c3.3 7.2 2.9 10.3-2.8 26.1-3 8.4-6.3 18.5-7.3 22.4-3 12.5-4.8 15.5-9.7 17-5.3 1.7-4.8 1.7-7.7 0zm581.8-20.5c-3.8-4.1-6-7.7-6-9.4 0-4 .6-3.6 4 2.2 1.6 2.8 4.6 6.6 6.5 8.5 2 1.9 3.6 3.9 3.6 4.4 0 2.2-2.5.5-8.1-5.7zm-526.9-1.7c0-.6.5-1.2 1.2-1.2s1.2.5 1.2 1.2-.5 1.2-1.2 1.2-1.2-.5-1.2-1.2zm621.9-2.1c-.4-.7-.2-1.6.5-2 1.8-1.1 2.4-.2 1.2 1.7-.6.9-1.2 1-1.7.3zm-613.6-2c0-.3.5-.8 1.2-1.3s1.2-.2 1.2.5-.5 1.3-1.2 1.3-1.2-.2-1.2-.5zm582.9-11.9c-1.2-3 .3-4 3.6-2.6 2.8 1.3 2.9 1.5.9 2.9-2.7 2-3.6 1.9-4.5-.3zm7.5-5.3c-2.3-1.4-.7-2.6 3-2.1 2.9.4 2.9.5.9 1.8-1.3.8-2.9.9-3.9.3zm-55.1-4.3c-2.4-5.2-1.6-7.2.9-2.2 2.6 5.2 2.7 5.4 1.4 5.4-.5 0-1.5-1.5-2.3-3.2zm4.5-.9c-.1-1.2.2-1.9.6-1.6.4.4.4 1.4.1 2.3-.4 1-.6.7-.7-.7zm96.1-11.3c-1.1-1.7-.1-2.6 2.5-2.2 1.8.4 1.9.6.2 1.9-1.3 1.2-2.1 1.2-2.7.3zm-698-5.9c-.4-.6-.2-1.2.5-1.2s1.3.5 1.3 1.2-.2 1.2-.5 1.2-.9-.5-1.3-1.2zm518.5-11.1c-7.5-2.4-10.9-4.5-13.8-8.9-3.4-5-9.5-8.8-12.7-7.8-1.3.4-3.4 2.6-4.7 4.9-2.3 3.9-2.7 4.1-6.9 3.3-2.4-.4-5.8-2.1-7.6-3.7-2.2-2-3.9-2.7-5.6-2.1-1.3.4-3.3.3-4.3-.3-1.6-.9-1.5-1.3 1.1-3 3-2 3-2 1-6.2-1.6-3.4-3.9-5.2-11.2-8.8-5-2.5-10.7-4.6-12.6-4.6-4.4 0-6.2-4-2.9-6.5 2-1.4 1.7-1.8-3.5-4.3-5.5-2.6-5.5-2.8-2.9-4.2 1.5-.8 3.8-1.5 5.3-1.5 2.8 0 6.3 3.9 6.3 7.1 0 1.1 1.1 3.4 2.6 5.2 2.5 3.2 2.6 3.2 4.4.9 1-1.3 4.3-3.7 7.3-5.5l5.4-3.1 7.5 3.4c4.2 1.9 10 4.3 13.1 5.4s9.2 4.4 13.6 7.3c8.4 5.5 12.1 10.2 10 12.7-1.7 2.1 5 11.4 12 16.7 7.7 5.7 7.5 6.3-.9 3.6zm51.4-.1c-.9-1.1-1-1.8-.2-1.8 1.4 0 3.1 2.2 2.3 3.1-.3.3-1.2-.3-2.1-1.3zm-198.4-4.8c-1.7-.9-2.2-1.6-1.2-1.7 2.1 0 5.5 1.9 4.7 2.7-.3.4-1.9-.1-3.5-1zm20-1.6c3.3-4.7 8.6-6.7 13.4-5.2 3.5 1.1 3.6 1.2.8 1.3-1.7.1-5.5 1.7-8.6 3.7-7 4.5-8.7 4.6-5.6.2zm171.3 1.7c-1.6-1.9-1.2-2.2 1.7-1.1 1 .4 1.9 1.2 1.9 1.8 0 1.6-1.9 1.2-3.6-.7zm5.6-1.1c-.4-1.2-.8-3-.7-4.1.1-1.3.5-1 1.2.9.6 1.6 1 3.4.7 4.1-.3.7-.8.3-1.2-.9zm91.3 1.1c0-.3.5-.8 1.2-1.3s1.2-.2 1.2.5-.5 1.3-1.2 1.3-1.2-.2-1.2-.5zm-302.1-4.9c-.8-.3-1.2-1.1-.8-1.7.9-1.5 8.5-1.4 9.4.1.4.6 0 1.2-.8 1.2-.9 0-2.6.2-3.9.5-1.3.3-3.1.2-3.9-.1zm17.5-.9c-2.1-2.6.3-3.4 5.9-1.9 5.6 1.5 5.6 1.7-.2 2.8-3 .6-4.7.3-5.7-.9zm177.4-.7c-.8-1.3-1-2.4-.3-2.4.6 0 1.7 1.1 2.4 2.4.7 1.3.8 2.4.3 2.4-.5-.1-1.6-1.1-2.4-2.4zm7.4-1.2c-3.2-3.5-1.5-4 1.8-.6 1.5 1.6 2.2 2.9 1.6 2.9s-2.3-1-3.4-2.3zm-221.5-.2c-4.2-.6-10.2-1.9-13.2-2.9-3.1-1-6.7-1.5-8-1-2.7.9-14.2-2.5-14.2-4.2 0-3.8 10.6-4.1 16.2-.4 2.1 1.4 3.8 1.4 8.2.4 4.9-1.1 5.9-1 8.8 1.2 1.8 1.3 3.8 2.4 4.5 2.4 2.3 0 9.4 4 8.8 4.9-.3.5-1.2.9-2 .8s-4.9-.6-9.1-1.2zm212-5.7c-1.2-1.3-1.6-2.4-1-2.4s2.1 1.1 3.3 2.4c1.2 1.3 1.6 2.4 1 2.4s-2.1-1.1-3.3-2.4zm-7.4-1.5c-.7-.8-1.6-3.1-2-5-.7-3.1-.6-3.3.7-1.2.8 1.3 2.2 3.2 3.1 4.3 1 1.1 1.2 2.2.6 2.6-.7.4-1.8.1-2.4-.7zm-25-3.8l-2.9-1.6 4.5-.9c2.5-.5 6.3-2.4 8.5-4.4 2.4-2.1 4-2.9 4-1.9 0 2.4-1.5 4.3-5.9 7.5-4.6 3.5-4.4 3.5-8.2 1.3zm-221.6-4.6c-4.3-2.5-12.2-12-14.7-18-1.4-3.2-4.5-8.5-7-11.7s-5.3-7.5-6.3-9.4-4-5.7-6.7-8.3c-5.7-5.5-9.2-11.2-6.8-11.2 3.1.1 11.1 4.5 14.5 8.1 9.4 9.9 11.4 11.6 15.8 14.4 4.3 2.6 6.3 5.4 6.5 8.9 0 .6 1.3 2.5 2.7 4.1 1.5 1.6 4.2 4.7 6.1 6.8 1.9 2.1 3.8 5.4 4.2 7.3 1.4 6.2-3.6 11.7-8.3 9zm-237.9-.7c0-.6.5-1.2 1.2-1.2s1.2.5 1.2 1.2-.5 1.2-1.2 1.2-1.2-.6-1.2-1.2zm312.4-.1c-.4-.7-.4-2.2 0-3.5s-.1-3.5-1.1-5.1c-1.6-2.5-1.6-3 .2-5.6 1.1-1.6 2.4-5.7 2.9-9.3.6-4.4 1.8-7.3 3.7-9.2 2.6-2.6 3.2-2.7 9-1.6 5 .9 6.9.8 9.6-.6 4.5-2.3 4.9-2.2 3.4 1.1-1.9 4.2-5.7 5.5-9.8 3.4-7.2-3.8-16.8 1.8-11.7 6.9 1.9 1.9 2.9 2 6.3 1 5.9-1.7 8.2-1.4 4.5.6-4.1 2.2-4.9 4.7-2.8 8.9 1 1.9 1.8 4.8 1.8 6.5 0 2.7-.3 2.9-2.4 1.8-1.3-.7-3.2-3.2-4.2-5.6-1.8-4.3-1.8-4.3-4.1-2-2 2-2.1 2.9-1 6.9 1 3.6.9 4.8-.3 5.6-2.2 1.3-3.1 1.3-4-.2zm162-6.3c-1.1-1.7-3.7-3.9-5.7-5-2-1-3.4-2.1-3.1-2.5 1.8-1.8 12.1 6.5 11.2 9.1-.1.9-1.2.2-2.4-1.6zm-185.4-3.9c-1.8-.9-4.2-1.4-5.3-1-2.9.9-14.6-1.4-15.8-3.2-.9-1.4-3.6-10.1-5.1-16.2-.4-1.7 0-3.9.9-5.2 1.4-1.8 2.1-2 4.2-.8 2.3 1.2 2.7 1 4-1.7.8-1.7 3.4-4.1 5.7-5.3 2.5-1.3 4.9-3.7 5.8-5.8 1-2.4 2.8-4 5.5-4.9 2.2-.7 5.4-3.1 7.1-5.4s3.7-4 4.5-4 3.1 1.8 5.2 3.9l3.8 3.9-3 4.1c-3.4 4.6-3.3 8.6.6 14.1l2.4 3.3-2.9 1.9c-1.6 1.1-2.9 2.6-2.9 3.4 0 2.7-7.6 18.3-9.5 19.5-1.4.8-3 .6-5.2-.6zm68.6 0c-2.4-.6-2.8-2.7-.4-2.7.9 0 3.4.4 5.6.8 3.3.7 3.6.9 1.6 1.7-2.7.9-3.8 1-6.8.2zm188.1-15.1c0-.3.5-.8 1.2-1.3.6-.4 1.2-.2 1.2.5s-.5 1.3-1.2 1.3-1.2-.2-1.2-.5zm-192.3-3.2c-.9-.9-1-2-.2-3.6.6-1.2.9-2.7.5-3.3-1.1-1.7 1.6-5.9 3.8-5.9 1.7 0 1.7.2-.1 2.2-1.6 1.7-1.7 2.9-.8 5.3 1.9 4.9-.1 8.3-3.2 5.3zm-593.1-3.9c0-.3.5-.8 1.2-1.3.6-.4 1.2-.2 1.2.5s-.5 1.3-1.2 1.3-1.2-.2-1.2-.5zm819-3c-.4-.6-.2-1.2.5-1.2s1.3.5 1.3 1.2-.2 1.2-.5 1.2-.9-.5-1.3-1.2zm-812-11.1c0-.3.5-.8 1.2-1.3.6-.4 1.2-.2 1.2.5s-.5 1.3-1.2 1.3-1.2-.2-1.2-.5zM990.9 701c-2.3-5.3-2.6-5.5-6-4.7-3.5.8-3.6.7-2.3-1.8 1.1-2 2.1-2.4 4.6-1.8 2.4.5 4 0 6.4-2.2 1.7-1.6 3.2-3.9 3.2-5.1 0-3 4.4 7 5.4 12.4.8 4.1.7 4.3-1.2 2.8-2.7-2.3-5.4.1-3.1 2.8.9 1.1 1 1.8.3 1.8s-2.1.3-3.1.7c-1.3.5-2.4-.8-4.2-4.9zm-215.3 2.1c-1.3-2.1-2.1-11.8-1.1-14.3 1-2.7 1.1-2.7 4.1 1.8 3.6 5.3 4.8 8.7 3.6 10.6-1.2 1.7-5.9 3.1-6.6 1.9zm263.8-6.1c0-.6.5-1.5 1.2-1.9s1.2-.2 1.2.5c0 .6-.5 1.5-1.2 1.9s-1.2.1-1.2-.5zm185.4-.2c0-.6.2-1.2.5-1.2s.8.5 1.3 1.2.2 1.2-.5 1.2-1.3-.5-1.3-1.2zM956.7 690c0-.5 2.4-3.6 5.3-6.8 4.2-4.7 5.3-5.4 5.3-3.4 0 1.3-1.7 4.4-3.9 6.8-3.8 4.1-6.7 5.6-6.7 3.4zm25.6-3.1c-.4-1.1-.3-2.8.2-3.8.8-1.5 1.2-1.5 2.3-.1 1 1.3 1 2.2-.2 3.8-1.5 2-1.6 2-2.3.1zm-904.5-4.6c.7-.9 1-1.9.5-2.4-.4-.4.3-.8 1.7-.8 1.9 0 2.3.6 1.8 2.4-.4 1.4-1.6 2.4-3 2.4-1.8 0-2-.4-1-1.6zm912.4-.3c-.4-1.2-1-2.6-1.3-3.1s0-.9.6-.9c1.2 0 2.8 4.8 2 5.7-.3.3-.9-.5-1.3-1.7zm-12-3.1c-1.7-2 0-4.8 2.4-4.3 1.6.3 1.6.8.4 3.1-1.2 2.3-1.7 2.5-2.8 1.2zm14-4.1c-1.4-1.7-2.3-3.3-2-3.6 1-1 4.3 1.2 6 3.9 2.7 4.1-.7 3.9-4-.3zm-19.4-4.6c-1.1-1.1-1.9-2.5-1.9-3.3s1.2-.2 2.6 1.2c1.4 1.4 2.3 2.9 1.9 3.3s-1.6-.1-2.6-1.2zm-927.1-.1c-.4-.4-.8-1.3-.8-2s.6-.7 1.4.2c.8.8 1.1 1.7.8 2s-1 .2-1.4-.2zm-6.7-1.6c0-.6.2-1.2.5-1.2s.8.5 1.3 1.2.2 1.2-.5 1.2-1.3-.5-1.3-1.2zm55.5-2.4c0-.6.2-1.2.5-1.2s.8.5 1.3 1.2c.4.6.2 1.2-.5 1.2s-1.3-.5-1.3-1.2zm890.1-.1c-1.2-.7-3.4-.9-5-.5-2.3.6-3.9-.3-8.1-4.8-6-6.2-7.2-8.8-5.4-12.2.7-1.3 1.2-3.9 1.2-5.9 0-6.4 4.3-6.2 7.4.4 1.7 3.7 1.8 4.4.1 8.4-1.8 4.2-1.7 4.4 1.4 7.7 2.3 2.4 4 3.2 5.8 2.7 1.5-.4 3.2.1 4 1.2 2.2 2.6 1.3 4.5-1.4 3zm-897.2-7.5c0-.3.5-.8 1.2-1.3s1.2-.2 1.2.5-.5 1.3-1.2 1.3-1.2-.2-1.2-.5zm185.4-4.2c0-.6.5-1.2 1.2-1.2.6 0 1.2.5 1.2 1.2s-.5 1.2-1.2 1.2c-.6 0-1.2-.5-1.2-1.2zm-188.9-4.6c0-.6.5-1.5 1.2-1.9s1.2-.2 1.2.5c0 .6-.5 1.5-1.2 1.9s-1.2.2-1.2-.5zm-10.1-4.8c-.4-.7.1-.9 1.1-.5 2 .8 2.4 1.6.7 1.6-.5.1-1.4-.5-1.8-1.1zm187.8 0c-.4-.6-.2-1.2.5-1.2s1.3.5 1.3 1.2-.2 1.2-.5 1.2-.9-.6-1.3-1.2zm-183-2.4c-.4-.6-.2-1.2.5-1.2s1.3.5 1.3 1.2-.2 1.2-.5 1.2-.9-.5-1.3-1.2zm5.3 0c0-.6.2-1.2.5-1.2s.8.5 1.3 1.2.2 1.2-.5 1.2-1.3-.5-1.3-1.2zm-81.2-3.1c-.8-.3-1.5-1.1-1.5-1.7 0-1.7 5.2-1.3 7.7.7 2.2 1.6 2.1 1.7-1.3 1.7-1.9-.1-4.1-.4-4.9-.7zm29.9-.7c-1.1-.6-3.4-.8-5.2-.4-1.8.4-4.6.2-6.2-.4-2.5-1-2.3-1.1 1.9-1 6.3.1 8-.9 6.4-3.9-1.1-2.1-.8-2.3 4.8-2.3 5.5 0 13.3 2.5 14.6 4.7 1 1.4-14.2 4.5-16.3 3.3zm22.6.8c-1.4-1.4.3-2.8 3.4-2.8 1.9 0 2.8.6 2.5 1.5-.5 1.5-4.6 2.5-5.9 1.3zm854.5-1.9c-3.1-3.1 0-6.9 5.7-6.9 2.5 0 2.5 0 .4 3.7-2.6 4.4-4.1 5.2-6.1 3.2zM65 637.3c0-.3.8-.8 1.8-1.1 1-.4 1.8-.2 1.8.5s-.8 1.1-1.8 1.1-1.8-.2-1.8-.5zm-51.1-8.4c-.4-.4-2.9-.7-5.5-.7-3.7-.1-4.6-.4-3.7-1.5s-.4-2.5-4.7-5.3c-8.5-5.5-13.3-6.6-19-4.3-5.4 2.1-5.8 2.2-5.8.9 0-2.5 9.4-5.2 16.2-4.7 6.5.5 10.1 1.9 22.8 8.7 10.4 5.6 10.5 5.6 7.1 6.6-3.9.9-6.6 1.1-7.4.3zm8.6-10c2.3-1.5 3.5-1.5 3.5 0 0 .6-1.2 1.2-2.7 1.2-2.1-.1-2.3-.3-.8-1.2zm940.6-2.1c-.7-.5-1.9-2.1-2.7-3.6-1.2-2.3-1.1-3.3.7-6.4 2.8-4.7 4.6-5.3 5.5-1.7.9 3.7-1.8 12.8-3.5 11.7zm-932.9-1.6c.8-1.3 5.2-1.4 5.2-.2 0 .5-1.3 1-2.9 1.1-1.6.1-2.7-.3-2.3-.9zM6.9 603.8c-1.9-2.2-1.6-5 .5-5 .7 0 .9 1 .6 2.3s0 2.5.7 2.8 1 .8.7 1.2c-.4.5-1.6-.1-2.5-1.3zm6.8-9.2c-.4-1.1-.5-2.3-.2-2.6s.9.3 1.4 1.4.5 2.3.2 2.6c-.4.3-1-.3-1.4-1.4zm-7.4-1.1c0-1 1-1.8 2.2-1.8 2 0 2.1.2.5 1.8-1 1-2 1.8-2.2 1.8-.3 0-.5-.8-.5-1.8zm990.5-25.9c0-.9-1.3-3.2-2.9-5.1-3.7-4.4-2.4-7.4 2-4.5 3.2 2.1 4.9 6.4 3.7 9.4-.8 2.4-2.8 2.5-2.8.2zm-916.5-7.1c0-.3.5-.8 1.2-1.3s1.2-.2 1.2.5-.5 1.3-1.2 1.3-1.2-.2-1.2-.5zm923.1-1.4c-.8-2 1-3.9 3.8-3.9 1.9 0 1.9 2.6.1 4.5-2 1.8-3 1.7-3.9-.6zm10.8-4.4c-2.3-3.5-5.5-4-12.9-1.9-3 .8-5.1.8-6.5 0-1.1-.7-1.4-1.2-.7-1.2s3-1.4 4.9-3c2.5-2.1 4.4-2.8 6.4-2.3 2.1.5 4.4-.5 9.2-4.1 9.3-7 10.2-9.2 6.4-16.7-3.6-7.2-2.6-9.5 2.8-6.3 3.9 2.3 7.6 9 6.6 11.8-.4 1 .2 4.2 1.3 7 1.5 4.1 1.7 5.8.7 7.7-1.5 2.8-5.7 4.7-10.5 4.7-2.7 0-3.5.7-4.4 3.8l-1.1 3.8-2.2-3.3zm-478.5-4c-1.4-1.4-.7-2.7 1.6-2.7 1.3 0 2.6-.5 3-1.2 1.1-1.8 3-1.4 2.3.4-.7 2-5.8 4.5-6.9 3.5zm-40.2-2l-3.5-1.6 4.7-.1c5.9-.1 10.2 1 9.4 2.4-1 1.5-6.6 1.1-10.6-.7zm-47.7-11.8c-4.7-2.4-4.9-2.7-2.5-3.4 3-.8 9.5.2 9.4 1.4 0 .4-.4 1.6-.9 2.7-.8 1.8-1.3 1.7-6-.7zm-23.7-12.8c-1-2.9-.9-4.1.4-5.4 2.4-2.4 4.3-.7 4.3 3.9-.1 5.4-3 6.4-4.7 1.5zm-27.7 1c.8-2.2 4.4-2.6 3.7-.4-.3.8-1.4 1.6-2.5 1.9-1.3.2-1.7-.2-1.2-1.5zm617.1-13.5c-2.2-3-2.2-3.6-.6-5.9 1.6-2.2 1.6-2.9-.1-6-2.7-5.1-2.3-5.4 2.3-1.9 2.3 1.7 6.8 3.9 10 4.9 6.6 2 8.2 3.5 4.8 4.6-1.3.4-2.4 1.5-2.4 2.5 0 1.3-.8 1.5-3.2.9-6.2-1.6-8-1.2-7.6 1.7.5 3.4-.3 3.3-3.2-.8zM426 513c-1.4-1.4-.9-3.7 1-4.4 1.3-.5 1.8.1 1.8 2.2-.1 2.9-1.2 3.8-2.8 2.2zm580-24.9c-1-1.1-3.4-5.3-5.4-9.2s-7.1-11.1-11.5-15.9c-4.9-5.4-7.3-9-6.4-9.3.8-.3 2.6 1 3.9 2.7 3.2 4.3 7.3 8.1 13.6 12.7 5.2 3.9 7.8 7.4 4.4 6.1-3.9-1.5-2.9 2.1 2.1 7.7 2.9 3.3 5.3 6.3 5.3 6.6.2 1.5-4.4.4-6-1.4zM141.7 486c0-1 .5-1.8 1.1-1.8s.8.8.5 1.8c-.4 1-.9 1.8-1.1 1.8-.2 0-.5-.8-.5-1.8zm-6.1-3.8l-4.4-.5 8.3-8.2c4.6-4.5 8.9-8.2 9.6-8.2.8 0 .5.9-.5 2.1-2.5 2.7-.8 5.8 3.7 6.8 2 .4 3.9 1.9 4.7 3.6 1.2 2.7 1 2.9-3.1 4.1-4.4 1.1-9.5 1.2-18.3.3zm-287.8-8.5c-4.1-3.8-4.5-5.4-1.8-6.5 2.4-.9 6.9 2.1 8.6 5.8 1.8 3.9 1.8 4.1-.9 4.1-1.2.1-3.9-1.5-5.9-3.4zm520.1-6c1.3-.6 3.9-1.7 5.7-2.4 4-1.5 3.4-3-1.7-4-3.5-.7-3.6-.9-1.6-2.3 1.2-.9 1.8-2.1 1.4-2.8-.4-.7.8-1.8 2.8-2.5 1.9-.7 3.5-1.8 3.5-2.4 0-2.7-2.5-7.3-3.8-7.1-3.2.4-4.6-.1-4.1-1.6.3-.8.1-2.4-.5-3.5-1.5-3 2-9.1 5.2-9.1.5 0 .8.6.6 1.4-.2.8 1 1.6 2.5 1.9l2.8.4-2.6 2.8-2.6 2.8 3 1.1c3.2 1.2 6.3 5.2 9.4 12.1 1.5 3.3 2.5 4.2 4.3 3.7 3.6-.9 4 1.5.7 3.7-2.3 1.5-2.7 2.4-1.7 3.4s-1 1.7-7.8 2.7c-5.1.7-11.1 1.7-13.3 2.1-3.6.6-4 .5-2.2-.4zm-19.9-6.5c-.4-1.1.1-3.4 1-5.3 1.1-2.1 1.3-3.7.6-4.1-2-1.3-1.3-2.9 1.7-3.6 1.6-.4 3.5-1.5 4.3-2.4 1.6-1.9 8.8-2.2 9.9-.5.4.6-.1 2.4-1.1 3.8s-1.8 4-1.8 5.8c0 2.6-.8 3.4-5 4.9-2.8 1-5.9 2.1-6.9 2.6-1.3.4-2.2.1-2.7-1.2zm21.7-11.7c0-.3.5-.8 1.2-1.3.6-.4 1.2-.2 1.2.5s-.5 1.3-1.2 1.3-1.2-.2-1.2-.5zm-524.2-5.7c-1.2-1.4-1.1-2 .4-3.2 2.4-2 3.6-.6 2.2 2.5-1 2.1-1.3 2.2-2.6.7zm-1.8-8.9c-.4-.6.1-1.8 1-2.6 1.9-1.6 2.3-.3.7 2.2-.6 1-1.3 1.1-1.7.4zm-76.4-.7c0-.8 3.6-2.3 8.7-3.5 1.9-.5 3.1-.4 2.7.3-.4.6-2.1 1.4-3.9 1.7-1.8.4-4.2 1-5.3 1.5-1.2.3-2.2.4-2.2 0zm701.9-13.3c-2.2-.9-1.8-2.2.7-2.4 1.2-.1 2.2.6 2.2 1.5-.1 1.7-.5 1.9-2.9.9zm-259.5-6.1c-7.5-4.1-11-10.3-8.9-15.6 1-2.5 1.1-4 .1-5.8-2-3.7.6-7.9 7.1-12 3.1-1.9 6.2-4.5 6.9-5.8 1.9-3.5.2-9.6-3.1-11.1-1.7-.8-2.6-2-2.2-2.9.8-2.2-3.1-9.6-7-13.3-2.9-2.7-4.1-3-14-3-13.4-.1-15.9-.8-15.7-4.7.1-1.6.4-2.9.8-2.9.3 0 5.1-.6 10.6-1.2 7-.9 13.3-2.6 21.2-6 12.1-5.2 13.1-5.3 42-4.6 9.1.2 17.5-.5 28.3-2.3 10.1-1.7 17.5-2.3 21.5-1.9 3.4.4 8.3.1 11.1-.6 6.4-1.7 23.2.4 29.8 3.7 3.9 2 6 2.2 12.5 1.6 7.1-.7 7.6-.6 5.5 1-1.3 1-5.3 2.1-8.9 2.6-7.8 1-14.9 6.5-13 10.1.8 1.5.2 2.8-2.4 5.3-1.9 1.8-3.8 4.2-4.1 5.3-.8 2.6-11.3 7.4-16.4 7.6-5.8.2-6.4 1.4-1.9 3.9 2.1 1.2 5.2 3.1 6.8 4.4l3 2.3-2.7 1c-2.1.8-3.8.3-7.2-2.1-4.7-3.2-9.7-3.3-7 0 1 1.3.8 1.8-1.2 2.3-4.4 1.1-1.3 3.4 3.6 2.6 3.1-.5 4.8-.2 5.8.9 1.1 1.4-.3 2-9 3.8-5.7 1.2-13.3 2.2-16.8 2.3-6.6.1-11.4 2-18.5 7.4-2.3 1.7-7.2 3.5-12.9 4.6-11.9 2.3-16 4.9-23.1 15.2-5.8 8.2-9.3 11.3-12.8 11.3-1.1-.1-4.6-1.6-7.8-3.4zm-83.8-7.9c-2.5-1.6-5.6-4.5-6.9-6.5-2.5-3.9-4.7-4.4-11.4-2.5-2.3.6-4.8.7-5.8.1-3.5-2 2.8-3.9 9.9-3 5.4.7 6.5.5 7.2-1.1 1.3-3.3 7-5.6 10.2-4.2 2 .9 3.7.9 6.3-.1 3.4-1.3 3.4-1.4 1.2-3-1.3-.9-2.7-1.7-3.2-1.7s-2.3-2.4-4-5.3-4.9-6.4-7.1-7.7c-3.7-2.3-4.2-2.3-7.6-.6-2.9 1.5-4.6 1.6-9.2.6-3.1-.7-7.4-.9-9.6-.5-3.8.7-10.8-1.2-10.8-2.9 0-3.2 10-10.3 15.9-11.4l4.7-.8-3.4 3.6c-4.7 5-2.9 7.2 2.2 2.8 2.1-1.9 5.9-3.8 8.2-4.2 3.6-.7 5.2-.2 9.8 2.8 6.1 4 6.6 4.1 10 2.3 2.1-1.1 2.8-.8 5.1 2 1.6 1.9 5 4.1 8.4 5.1 5.4 1.7 5.8 2.1 5.8 5.8 0 2.8.8 4.6 2.7 5.9 7.9 5.7 7.8 5.4 6 8.2-2.4 3.8-4.2 4-9.4 1.4-3.6-1.8-5.2-2.1-7-1.1-2.2 1.2-2.3 1.4-.5 4.9 1.5 2.8 1.6 4.3.6 6.5-1.2 2.7-1.4 2.7-4.8 1-6.6-3.4-11-1.2-4.9 2.5 1.9 1.1 3.2 2.5 2.9 3-1.1 1.9-6.9 1-11.5-1.9zm242.6 1.6c0-.5.8-1 1.8-1s1.8.4 1.8 1-.8 1-1.8 1-1.8-.5-1.8-1zm-287.1-6.4c-2.3-1.2-4.1-1.3-7.4-.4-5.5 1.5-7.5.4-4.7-2.7 3.6-4 6-4.8 10.4-3.3 4.9 1.6 7.1 4 5.7 6.3-.8 1.5-1.4 1.5-4 .1zm234.6-.5c-1.9-1.3-4.4-2-5.5-1.7-1.5.5-1.8.1-1.4-1.7.7-2.7 11.1-6.6 14.6-5.5 1.2.4 4.3.1 6.9-.7 4.1-1.2 5.2-1.1 7.9.7l3.2 2.1-2.8 2.2c-2.4 1.9-6.9 3.5-17.6 6.4-1 .3-3.4-.5-5.3-1.8zM-4.7 379.5c-1.6-.3-5.6-1.6-8.8-3.1l-5.8-2.6 8.2-.6c4.5-.3 8.2-1.1 8.2-1.8s-3.2-1.5-7.1-1.8c-5.1-.5-6.1-.8-3.5-1.2 4.3-.7 4.6-2.5.6-3.5-2.9-.7-2.9-.8 1.2-2.5 7.1-3 14.6-3.6 21.3-1.6 5.5 1.6 6.3 1.6 8.9-.1 1.8-1.2 2.9-1.4 3-.6.1.7.2 1.9.3 2.7.3 2.6 2.6 2.2 5.4-.8 2.6-2.8 7.1-4.1 7.1-2.1 0 .5-1.1 2.6-2.3 4.7l-2.3 3.8 3.8 2 3.8 2-6.3 2.9c-5.6 2.6-6.8 2.7-11.9 1.5-4.9-1.2-6.3-1-11.3 1.1-5.6 2.4-6.7 2.5-12.5 1.6zm47.4-.8c-1.1-1.3-.6-1.9 2.1-3.1 1.9-.8 4.7-1.1 6.1-.6 2.6.8 2.5.9-1.4 3-4.9 2.7-5.2 2.7-6.8.7zm325.8-5.5c2.3-1.5 3.5-1.5 3.5 0 0 .6-1.2 1.2-2.7 1.2-2.1 0-2.2-.2-.8-1.2zm216.7-3.2c-6-2.4-5.9-2.3-4.2-4.4.8-1 1-1.8.5-1.8-.6 0 0-.8 1.3-1.8s2.4-2.2 2.4-2.6c0-1.7 4.8-6.4 8.2-7.9 1.9-.9 7-1.9 11.2-2.2 4.2-.3 9.9-.9 12.6-1.4 2.9-.4 5.2-.3 5.6.4.8 1.4-.8 1.9-9.9 3.6-9.1 1.6-14.6 4.2-18.2 8.5-3.8 4.5-3.9 7.4-.4 9.8l2.7 1.9-3.5-.1c-1.9-.2-5.7-1-8.3-2zm-618.5-3.5c-1.9-1.9-1.5-2.3 7.7-7.3 10.7-5.9 16.1-6.6 25.7-3.7l5.3 1.6-7.1 1.4c-5.8 1.1-18.1 5.3-27.8 9.3-1 .4-2.7-.2-3.8-1.3zM52 365c0-.6-1.5-2-3.2-3l-3.2-1.9 4.3.7c3.1.5 4.6.2 5.3-1 .8-1.4 8.3-4.3 11.3-4.3.5 0 .1 1.6-.9 3.5-2.4 4.6-13.6 9.6-13.6 6zm18.4-3.4c-1.7-2.7 9.9-7 14.8-5.4 3.6 1.1 1.2 3.1-5.1 4.1-2.8.5-6 1.2-7 1.7-1.1.4-2.3.2-2.7-.4zm37.7-8.7c-7.8-.6-14.3-1.3-14.5-1.4-1.1-1 1.6-4.2 4.4-5.3 2.8-1.2 4.1-1 7.9.9 3.7 1.9 6.1 2.2 13 1.7 4.7-.3 10-.2 11.8.2l3.3.8-4.1 2.2c-2.3 1.2-4.9 2.2-5.9 2.1-.9-.1-8.1-.6-15.9-1.2zM448 348c-5.8-3-6.4-4.3-1.8-4.3 1.8 0 4-.6 5-1.3 1.5-1.1 1.5-1.2-.2-.7-1.1.3-2.5 0-3.3-.8-1-1-1.6-1-2.3.1-.6 1-1.9 1.1-4.4.4-6.2-1.9-7.6-2.7-7.6-4.5 0-1.6 1.6-1.7 11.2-1 7.4.5 11.2.4 11.2-.4 0-2.3 3.3-1.2 4.1 1.5l.9 2.7.5-2.7c.3-1.5 1.3-2.7 2.2-2.7.9 0 1.7-.6 1.7-1.4 0-1.1.3-1.1 1.4 0 .8.8 4.8 1.4 9.4 1.4 8.4 0 10.4 1.5 4.8 3.7-2.9 1.1-8 .8-13.6-.8-1.1-.3-2.1-.2-2.1.4 0 1.1 6.6 5.1 8.4 5.1.6 0 1.9.7 2.8 1.7 1.4 1.4 1.4 1.8-.1 2.3-1 .4-1.7.1-1.7-.6 0-.8-1.5-1-4.3-.5-3 .6-4 .4-3.4-.5.4-.7.2-2.1-.6-3-1.5-1.8-5.9-2.4-5.9-.8 0 .5-1.7 2.9-3.8 5.2l-3.8 4.2-4.7-2.7zm-313.3-2.6c-2-1.2-4.9-1.6-9.4-1.1-4.2.4-7.4.1-9.2-.9-2.4-1.4-1.8-1.5 5.6-1.5 9.2.1 13.3-1.9 8.3-4-2.4-1-2-1.1 2-.5 5.3.7 7.4-.7 4.5-3.1-3.1-2.6.3-3.4 11.3-2.6 6.8.4 11.1.2 12.8-.7 3.3-1.8 2-4.1-1.8-3.1-2.6.7-21-.4-20.2-1.2.6-.6 26.5-3 43.6-4 8.8-.6 18.7-1.3 21.8-1.7l5.8-.7-9.5 4.6c-8.9 4.3-23.5 8.5-29.4 8.5-1.5 0-5.6 1.6-9.3 3.5s-7.4 3.5-8.3 3.5c-.9 0-4.8 1.6-8.6 3.5l-7 3.5c-.1-.2-1.4-1-3-2zm-23.1-10.8c-5.7-1.3-5.9-1.7-1.7-3.9 6.1-3.2 11.9-4 14.6-2 2.1 1.5 2 1.8-2.1 4.2-4.3 2.5-6.1 2.8-10.8 1.7z"/></g></svg>